Coordinates
version=1
nRows=38
nColumns=12
inDegrees=yes

Units are S.I. units (second, meters, Newtons, ...)
Angles are in degrees

endheader
time	SC_y	SC_z	SC_x	AC_y	AC_z	AC_x	GH_y	GH_z	GH_yy	EL_x	PS_y
       0.0              -43.54          11.79           62.3          39.92          8.462          9.723          125.9          43.97         -106.4          101.9          12.35
   0.01032              -43.54           11.8           62.3          39.92          8.461          9.724          125.9          43.97         -106.3          101.9          12.36
   0.02064              -43.54           11.8          62.31          39.92          8.461          9.724          125.9          43.97         -106.3          101.8          12.38
   0.03095              -43.54           11.8          62.31          39.92           8.46          9.725          125.8          43.97         -106.3          101.8          12.39
   0.04127              -43.54          11.81          62.31          39.93          8.459          9.726          125.8          43.97         -106.2          101.8           12.4
   0.05159              -43.55          11.81          62.32          39.93          8.459          9.727          125.7          43.97         -106.2          101.8          12.42
   0.06191              -43.55          11.82          62.32          39.93          8.458          9.728          125.7          43.97         -106.2          101.8          12.43
   0.07222              -43.55          11.82          62.33          39.94          8.457          9.729          125.6          43.97         -106.1          101.8          12.45
   0.08254              -43.55          11.83          62.33          39.94          8.456           9.73          125.6          43.96         -106.1          101.8          12.47
   0.09286              -43.55          11.84          62.34          39.94          8.455          9.731          125.5          43.96         -106.0          101.7          12.49
    0.1032              -43.55          11.84          62.34          39.95          8.454          9.732          125.4          43.96         -106.0          101.7          12.51
    0.1135              -43.55          11.85          62.35          39.95          8.453          9.734          125.3          43.96         -105.9          101.7          12.53
    0.1238              -43.55          11.86          62.35          39.96          8.451          9.735          125.3          43.96         -105.9          101.7          12.56
    0.1341              -43.55          11.87          62.36          39.96           8.45          9.737          125.2          43.96         -105.8          101.6          12.58
    0.1444              -43.55          11.88          62.36          39.97          8.448          9.738          125.1          43.95         -105.7          101.6          12.61
    0.1548              -43.56          11.89          62.37          39.97          8.447           9.74          125.0          43.95         -105.6          101.6          12.64
    0.1651              -43.56           11.9          62.38          39.98          8.445          9.742          124.9          43.95         -105.6          101.5          12.67
    0.1754              -43.56          11.91          62.39          39.99          8.443          9.744          124.8          43.95         -105.5          101.5          12.71
    0.1857              -43.56          11.93           62.4           40.0          8.441          9.747          124.6          43.94         -105.4          101.5          12.75
     0.196              -43.56          11.94          62.41           40.0          8.438          9.749          124.5          43.94         -105.3          101.4          12.79
    0.2064              -43.57          11.96          62.42          40.01          8.436          9.752          124.3          43.94         -105.1          101.4          12.84
    0.2167              -43.57          11.98          62.43          40.02          8.433          9.755          124.1          43.93         -105.0          101.3          12.89
     0.227              -43.57          11.99          62.45          40.03           8.43          9.758          124.0          43.93         -104.9          101.2          12.95
    0.2373              -43.58          12.02          62.46          40.05          8.427          9.762          123.7          43.92         -104.7          101.2          13.01
    0.2476              -43.58          12.04          62.48          40.06          8.423          9.766          123.5          43.92         -104.5          101.1          13.08
    0.2579              -43.58          12.07           62.5          40.08          8.418          9.771          123.2          43.91         -104.3          101.0          13.16
    0.2683              -43.59           12.1          62.52          40.09          8.414          9.776          123.0           43.9         -104.1          100.9          13.25
    0.2786              -43.59          12.13          62.55          40.11          8.408          9.782          122.6           43.9         -103.8          100.8          13.35
    0.2889               -43.6          12.17          62.57          40.14          8.402          9.789          122.2          43.89         -103.5          100.7          13.46
    0.2992              -43.61          12.21          62.61          40.16          8.395          9.796          121.8          43.88         -103.2          100.6          13.59
    0.3095              -43.61          12.26          62.64          40.19          8.387          9.805          121.3          43.87         -102.9          100.4          13.74
    0.3198              -43.62          12.32          62.68          40.22          8.378          9.815          120.8          43.86         -102.4          100.2          13.91
    0.3302              -43.63          12.39          62.73          40.26          8.368          9.827          120.1          43.84         -101.9          100.0           14.1
    0.3405              -43.64          12.47          62.79          40.31          8.356           9.84          119.4          43.82         -101.4          99.77          14.32
    0.3508              -43.66          12.56          62.85          40.36          8.341          9.855          118.5           43.8         -100.7          99.49          14.59
    0.3611              -43.67          12.66          62.93          40.42          8.325          9.874          117.5          43.78         -99.91          99.16           14.9
    0.3714              -43.69          12.79          63.02          40.49          8.305          9.896          116.3          43.75         -98.97          98.76          15.27
    0.3818              -43.72          12.94          63.13          40.58          8.281          9.922          114.8          43.72         -97.85          98.29          15.71
